<?xml version="1.0" encoding="utf-8"?>
<!-- Designed by Vexels.com - 2021 All Rights Reserved - https://vexels.com/terms-and-conditions/  -->
<svg version="1.1" id="Capa_1" xmlns="http://www.w3.org/2000/svg" xmlns:xlink="http://www.w3.org/1999/xlink" x="0px" y="0px"
	 viewBox="0 0 1200 1200" enable-background="new 0 0 1200 1200" xml:space="preserve">
<g>
	<path fill="#33342F" d="M969.645,50h-32.351H262.706h-32.351h-37.329v37.329v32.351v755.586v18.698v21.575l18.694,10.77
		l16.201,9.334l337.296,194.317l16.149,9.304L600,1150l18.634-10.735l16.149-9.304l337.294-194.317l16.202-9.334l18.695-10.77
		v-21.576v-18.698V119.68V87.329V50H969.645z M974.768,107.795V882.29v16.781l-14.54,8.377l-345.735,199.179L600,1114.976
		l-14.494-8.349L239.771,907.447l-14.54-8.377V882.29V107.795V78.761h29.034h691.469h29.034V107.795z"/>
	<path fill="#33342F" d="M600,1081.469L945.734,882.29V107.795H254.265V882.29L600,1081.469z M561.306,267.146L600,155.833
		l38.694,111.313l117.816,2.4l-93.906,71.197l34.125,112.793L600,386.228l-96.733,67.309l34.129-112.793l-93.906-71.197
		L561.306,267.146z M289.062,380.324L600,559.847l310.938-179.522v117.281L602.074,675.931v2.395L600,677.128l-2.074,1.197v-2.395
		L289.062,497.606V380.324z M289.062,558.515L600,738.035l310.939-179.52v117.281l-1.037,0.599L602.074,854.119v2.395L600,855.316
		l-2.074,1.197v-2.395L289.062,675.796V558.515z M289.062,736.703L600,916.225l310.938-179.522v117.281l-308.864,178.325v2.395
		l-2.074-1.197l-2.074,1.197v-2.395L289.062,853.984V736.703z"/>
	<path fill="#EDB047" d="M254.265,78.761h-29.034v29.034V882.29v16.781l14.54,8.377l345.735,199.179l14.494,8.349l14.494-8.349
		l345.735-199.179l14.54-8.377V882.29V107.795V78.761h-29.034H254.265z M945.734,107.795V882.29L600,1081.469L254.265,882.29
		V107.795H945.734z"/>
	<polygon fill="#EDB047" points="597.927,919.816 293.21,743.888 293.21,851.59 597.927,1027.518 	"/>
	<polygon fill="#EDB047" points="906.791,743.888 602.074,919.816 602.074,1027.518 906.791,851.59 	"/>
	<path fill="#EDB047" d="M597.927,1034.704l2.074-1.197l2.074,1.197v-2.395l308.864-178.325V736.703L600,916.225L289.062,736.703
		v117.281l308.864,178.325V1034.704z M293.21,743.888l304.717,175.928v107.702L293.21,851.59V743.888z M602.074,919.816
		l304.717-175.928V851.59l-304.717,175.928V919.816z"/>
	<polygon fill="#EDB047" points="597.927,741.626 293.21,565.7 293.21,673.402 597.927,849.328 	"/>
	<polygon fill="#EDB047" points="906.791,565.7 602.074,741.626 602.074,849.328 906.791,673.402 	"/>
	<path fill="#EDB047" d="M597.927,856.514l2.074-1.197l2.074,1.197v-2.395l307.827-177.724l1.037-0.599V558.515L600,738.035
		l-310.937-179.52v117.281l308.864,178.323V856.514z M293.21,565.7l304.717,175.926v107.702L293.21,673.402V565.7z M602.074,741.626
		L906.791,565.7v107.702L602.074,849.328V741.626z"/>
	<polygon fill="#EDB047" points="597.927,563.438 293.21,387.51 293.21,495.212 597.927,671.14 	"/>
	<polygon fill="#EDB047" points="906.791,387.51 602.074,563.438 602.074,671.14 906.791,495.212 	"/>
	<path fill="#EDB047" d="M597.927,678.325l2.074-1.197l2.074,1.197v-2.395l308.864-178.325V380.324L600,559.847L289.062,380.324
		v117.281l308.864,178.325V678.325z M293.21,387.51l304.717,175.928V671.14L293.21,495.212V387.51z M602.074,563.438L906.791,387.51
		v107.702L602.074,671.14V563.438z"/>
	<polygon fill="#EDB047" points="455.504,273.451 542.2,339.182 510.696,443.317 600,381.173 689.301,443.317 657.801,339.18 
		744.497,273.451 635.722,271.233 600,168.467 564.279,271.233 	"/>
	<path fill="#EDB047" d="M503.267,453.537L600,386.228l96.729,67.309l-34.125-112.793l93.906-71.197l-117.816-2.4L600,155.833
		l-38.694,111.313l-117.816,2.4l93.906,71.197L503.267,453.537z M635.722,271.233l108.775,2.218l-86.696,65.729l31.5,104.137
		L600,381.173l-89.305,62.144L542.2,339.182l-86.696-65.731l108.775-2.218L600,168.467L635.722,271.233z"/>
</g>
</svg>
